<svg width="24" height="24" viewBox="0 0 24 24" fill="none" xmlns="http://www.w3.org/2000/svg">
<path d="M22.5011 12.2331C22.5011 11.3698 22.4296 10.7398 22.2749 10.0865H12.2153V13.9831H18.1201C18.0011 14.9515 17.3582 16.4098 15.9296 17.3898L15.9095 17.5203L19.0902 19.935L19.3106 19.9565C21.3344 18.1248 22.5011 15.4298 22.5011 12.2331Z" fill="#4285F4"/>
<path d="M12.2147 22.4999C15.1076 22.4999 17.5361 21.5666 19.31 19.9566L15.929 17.3898C15.0242 18.0082 13.8099 18.4398 12.2147 18.4398C9.38145 18.4398 6.97669 16.6082 6.11947 14.0765L5.99382 14.087L2.68656 16.5953L2.64331 16.7132C4.4052 20.1432 8.02425 22.4999 12.2147 22.4999Z" fill="#34A853"/>
<path d="M6.1201 14.0766C5.89392 13.4233 5.76301 12.7232 5.76301 11.9999C5.76301 11.2766 5.89392 10.5766 6.1082 9.92327L6.10221 9.78407L2.75349 7.23547L2.64393 7.28655C1.91778 8.70992 1.5011 10.3082 1.5011 11.9999C1.5011 13.6916 1.91778 15.2899 2.64393 16.7132L6.1201 14.0766Z" fill="#FBBC05"/>
<path d="M12.2148 5.55991C14.2267 5.55991 15.5838 6.41158 16.3577 7.12329L19.3814 4.22994C17.5244 2.53828 15.1076 1.49994 12.2148 1.49994C8.02425 1.49994 4.4052 3.85659 2.64331 7.28656L6.10759 9.92326C6.97672 7.3916 9.38145 5.55991 12.2148 5.55991Z" fill="#EB4335"/>
</svg>
