<svg width="24" height="24" viewBox="0 0 24 24" fill="none" xmlns="http://www.w3.org/2000/svg">
<g clip-path="url(#clip0_3295_4117)">
<path d="M18.8 23.9999H5.20003C2.32819 23.9999 0 21.6718 0 18.7999V5.19997C0 2.32813 2.32819 -6.10352e-05 5.20003 -6.10352e-05H18.8001C21.6718 -6.10352e-05 24 2.32813 24 5.19997V18.8C24 21.6718 21.6718 23.9999 18.8 23.9999Z" fill="#06C755"/>
<path d="M20.6992 10.9447C20.6992 7.03467 16.7796 3.85345 11.9611 3.85345C7.14233 3.85345 3.22311 7.03467 3.22311 10.9447C3.22311 14.45 6.33168 17.3857 10.5309 17.9407C10.8156 18.0021 11.2027 18.1285 11.3006 18.3717C11.3887 18.5925 11.3582 18.9387 11.3287 19.162L11.2041 19.9101C11.1659 20.1309 11.0283 20.7741 11.9609 20.3811C12.8935 19.9881 16.9934 17.418 18.8265 15.3077H18.8261C20.0925 13.9191 20.6992 12.5098 20.6992 10.9449" fill="white"/>
<path d="M10.1857 9.05621H9.57253C9.4785 9.05621 9.40237 9.13243 9.40237 9.22618V13.0336C9.40237 13.1271 9.47859 13.2023 9.57253 13.2023H10.1857C10.2797 13.2023 10.3558 13.1273 10.3558 13.0336V9.22524C10.3558 9.13149 10.2796 9.05527 10.1857 9.05527M14.4044 9.05621H13.7906C13.6964 9.05621 13.6205 9.13243 13.6205 9.22618V11.4882L11.8755 9.13177C11.8715 9.12577 11.8669 9.11996 11.8624 9.11461L11.8614 9.11339L11.848 9.09999L11.8388 9.09249C11.8374 9.09127 11.836 9.09005 11.8344 9.08911L11.8256 9.08311C11.824 9.08189 11.8222 9.08124 11.8205 9.08011L11.8115 9.07496L11.806 9.07233L11.7962 9.06811L11.7907 9.06624C11.7874 9.06488 11.7839 9.06375 11.7804 9.06286L11.7744 9.06127L11.7649 9.0594C11.7624 9.05883 11.7599 9.05846 11.7577 9.05846C11.7547 9.05789 11.7517 9.05752 11.7487 9.05724L11.7398 9.05668C11.7377 9.05668 11.7358 9.05649 11.7338 9.05649H11.121C11.027 9.05649 10.9508 9.13271 10.9508 9.22646V13.0338C10.9508 13.1274 11.0271 13.2026 11.121 13.2026H11.7338C11.8281 13.2026 11.9043 13.1276 11.9043 13.0338V10.7724L13.6511 13.1318C13.663 13.1483 13.6777 13.1625 13.6945 13.1738C13.6949 13.1742 13.6955 13.1747 13.6961 13.1752L13.7067 13.1814L13.7114 13.1842C13.7141 13.1856 13.7168 13.1869 13.7196 13.1881L13.7277 13.1916L13.7327 13.1935L13.7445 13.1971C13.7451 13.1972 13.7461 13.1974 13.7469 13.1976C13.7612 13.2014 13.7758 13.2033 13.7905 13.2032H14.4034C14.4974 13.2032 14.5735 13.1282 14.5735 13.0345V9.22514C14.5735 9.13139 14.4973 9.05518 14.4034 9.05518" fill="#06C755"/>
<path d="M8.70817 12.249H7.0427V9.22523C7.0427 9.1312 6.96648 9.05507 6.87273 9.05507H6.2596C6.16557 9.05507 6.08945 9.13129 6.08945 9.22523V13.0315C6.08943 13.0754 6.10651 13.1175 6.13707 13.149C6.13763 13.1501 6.1384 13.151 6.13932 13.1517C6.14026 13.1524 6.1412 13.1533 6.14195 13.1541C6.17349 13.1845 6.21554 13.2015 6.25932 13.2015H8.70807C8.8021 13.2015 8.87804 13.1251 8.87804 13.0314V12.4183C8.87804 12.3242 8.80304 12.2481 8.70807 12.2481M17.7891 10.0078C17.8831 10.0078 17.959 9.93154 17.959 9.8376V9.22448C17.959 9.13045 17.884 9.05432 17.7891 9.05432H15.3403C15.2962 9.05428 15.2539 9.07151 15.2223 9.10232C15.2217 9.10288 15.2209 9.10354 15.2204 9.1042C15.2199 9.10485 15.2185 9.10607 15.2178 9.1072C15.1897 9.13757 15.1706 9.17882 15.1706 9.22438V13.0319C15.1706 13.0774 15.1888 13.1189 15.2183 13.1494L15.2204 13.1519L15.2229 13.1541C15.2534 13.1835 15.2949 13.2017 15.3404 13.2017H17.7892C17.8832 13.2017 17.9591 13.1255 17.9591 13.0318V12.4186C17.9591 12.3246 17.8841 12.2485 17.7892 12.2485H16.125V11.6049H17.7902C17.8125 11.6049 17.8347 11.6005 17.8553 11.592C17.876 11.5835 17.8947 11.5709 17.9105 11.5551C17.9263 11.5393 17.9388 11.5205 17.9474 11.4999C17.9559 11.4792 17.9602 11.4571 17.9602 11.4347V10.8219C17.9602 10.7279 17.8852 10.6514 17.7902 10.6514H16.125V10.008H17.7902L17.7891 10.0078Z" fill="#06C755"/>
</g>
<defs>
<clipPath id="clip0_3295_4117">
<rect width="24" height="24" fill="white"/>
</clipPath>
</defs>
</svg>
