<svg width="22" height="22" viewBox="0 0 22 22" fill="none" xmlns="http://www.w3.org/2000/svg">
<path d="M8.99997 0H2C0.895431 0 0 0.89543 0 2V8.99997C0 10.1045 0.89543 11 2 11H8.99997C10.1045 11 11 10.1045 11 8.99997V2C11 0.895431 10.1045 0 8.99997 0Z" fill="#FF8F56"/>
<path d="M19.9999 11H13C11.8954 11 11 11.8954 11 13V19.9999C11 21.1045 11.8954 21.9999 13 21.9999H19.9999C21.1045 21.9999 21.9999 21.1045 21.9999 19.9999V13C21.9999 11.8954 21.1045 11 19.9999 11Z" fill="#FF8F56"/>
<path d="M6.7489 13.2511H2C0.89543 13.2511 0 14.1465 0 15.2511V20C0 21.1045 0.895431 22 2 22H6.7489C7.85347 22 8.7489 21.1045 8.7489 20V15.2511C8.7489 14.1465 7.85347 13.2511 6.7489 13.2511Z" fill="#984A59"/>
<path d="M20 0H15.2511C14.1465 0 13.2511 0.895431 13.2511 2V6.7489C13.2511 7.85347 14.1465 8.7489 15.2511 8.7489H20C21.1045 8.7489 22 7.85347 22 6.7489V2C22 0.89543 21.1045 0 20 0Z" fill="#FF5959"/>
</svg>
