<svg width="222" height="36" viewBox="0 0 222 36" fill="none" xmlns="http://www.w3.org/2000/svg">
<path d="M13 4H6C4.89543 4 4 4.89543 4 6V13C4 14.1045 4.89543 15 6 15H13C14.1045 15 15 14.1045 15 13V6C15 4.89543 14.1045 4 13 4Z" fill="#FF8F56"/>
<path d="M23.9999 15H17C15.8954 15 15 15.8954 15 17V23.9999C15 25.1045 15.8954 25.9999 17 25.9999H23.9999C25.1045 25.9999 25.9999 25.1045 25.9999 23.9999V17C25.9999 15.8954 25.1045 15 23.9999 15Z" fill="#FF8F56"/>
<path d="M10.7489 17.2511H6C4.89543 17.2511 4 18.1465 4 19.2511V24C4 25.1045 4.89543 26 6 26H10.7489C11.8535 26 12.7489 25.1045 12.7489 24V19.2511C12.7489 18.1465 11.8535 17.2511 10.7489 17.2511Z" fill="#984A59"/>
<path d="M24 4H19.2511C18.1465 4 17.2511 4.89543 17.2511 6V10.7489C17.2511 11.8535 18.1465 12.7489 19.2511 12.7489H24C25.1045 12.7489 26 11.8535 26 10.7489V6C26 4.89543 25.1045 4 24 4Z" fill="#FF5959"/>
<path d="M203.163 31.378C202.92 31.378 202.799 31.2567 202.799 31.014V11.02C202.799 10.7773 202.92 10.656 203.163 10.656H205.815C205.919 10.656 206.005 10.682 206.075 10.734C206.161 10.786 206.205 10.8813 206.205 11.02L206.283 12.658C206.803 11.93 207.47 11.3667 208.285 10.968C209.1 10.5693 210.018 10.37 211.041 10.37C212.081 10.37 213.017 10.5607 213.849 10.942C214.698 11.306 215.418 11.826 216.007 12.502C216.596 13.1607 217.047 13.958 217.359 14.894C217.688 15.8127 217.853 16.8353 217.853 17.962C217.853 19.0713 217.688 20.094 217.359 21.03C217.047 21.966 216.596 22.7633 216.007 23.422C215.418 24.0807 214.698 24.592 213.849 24.956C213.017 25.3373 212.081 25.528 211.041 25.528C210.07 25.528 209.195 25.346 208.415 24.982C207.652 24.6353 206.993 24.1327 206.439 23.474V31.014C206.439 31.2567 206.317 31.378 206.075 31.378H203.163ZM210.131 22.2C210.72 22.2 211.257 22.096 211.743 21.888C212.228 21.68 212.644 21.394 212.991 21.03C213.337 20.6487 213.606 20.198 213.797 19.678C213.987 19.158 214.083 18.586 214.083 17.962C214.083 17.338 213.987 16.766 213.797 16.246C213.606 15.7087 213.337 15.258 212.991 14.894C212.644 14.5127 212.228 14.218 211.743 14.01C211.257 13.802 210.72 13.698 210.131 13.698C209.541 13.698 209.004 13.802 208.519 14.01C208.051 14.218 207.643 14.5127 207.297 14.894C206.95 15.258 206.681 15.7087 206.491 16.246C206.3 16.766 206.205 17.338 206.205 17.962C206.205 18.586 206.3 19.158 206.491 19.678C206.681 20.198 206.95 20.6487 207.297 21.03C207.643 21.394 208.051 21.68 208.519 21.888C209.004 22.096 209.541 22.2 210.131 22.2Z" fill="#60424C"/>
<path d="M190.7 25.528C189.66 25.528 188.715 25.3373 187.866 24.956C187.034 24.592 186.323 24.0807 185.734 23.422C185.145 22.7633 184.685 21.966 184.356 21.03C184.044 20.094 183.888 19.0713 183.888 17.962C183.888 16.8353 184.044 15.8127 184.356 14.894C184.685 13.958 185.145 13.1607 185.734 12.502C186.323 11.826 187.034 11.306 187.866 10.942C188.715 10.5607 189.66 10.37 190.7 10.37C191.723 10.37 192.641 10.5693 193.456 10.968C194.271 11.3667 194.938 11.93 195.458 12.658L195.562 11.02C195.562 10.7773 195.692 10.656 195.952 10.656H198.578C198.838 10.656 198.968 10.7773 198.968 11.02V24.878C198.968 25.1207 198.838 25.242 198.578 25.242H195.952C195.692 25.242 195.562 25.1207 195.562 24.878L195.458 23.24C194.938 23.968 194.271 24.5313 193.456 24.93C192.641 25.3287 191.723 25.528 190.7 25.528ZM191.61 22.2C192.199 22.2 192.737 22.096 193.222 21.888C193.707 21.68 194.123 21.394 194.47 21.03C194.817 20.6487 195.085 20.198 195.276 19.678C195.467 19.158 195.562 18.586 195.562 17.962C195.562 17.338 195.467 16.766 195.276 16.246C195.085 15.7087 194.817 15.258 194.47 14.894C194.123 14.5127 193.707 14.218 193.222 14.01C192.737 13.802 192.199 13.698 191.61 13.698C191.021 13.698 190.483 13.802 189.998 14.01C189.513 14.218 189.097 14.5127 188.75 14.894C188.403 15.258 188.135 15.7087 187.944 16.246C187.753 16.766 187.658 17.338 187.658 17.962C187.658 18.586 187.753 19.158 187.944 19.678C188.135 20.198 188.403 20.6487 188.75 21.03C189.097 21.394 189.513 21.68 189.998 21.888C190.483 22.096 191.021 22.2 191.61 22.2Z" fill="#60424C"/>
<path d="M158.602 25.242C158.36 25.242 158.238 25.1207 158.238 24.878V11.02C158.238 10.7773 158.36 10.656 158.602 10.656H161.254C161.358 10.656 161.445 10.682 161.514 10.734C161.601 10.786 161.644 10.8813 161.644 11.02L161.722 12.762C162.242 11.982 162.91 11.3927 163.724 10.994C164.556 10.578 165.432 10.37 166.35 10.37C167.442 10.37 168.378 10.604 169.158 11.072C169.938 11.5227 170.528 12.1813 170.926 13.048C171.464 12.164 172.174 11.4967 173.058 11.046C173.96 10.5953 174.913 10.37 175.918 10.37C177.513 10.37 178.761 10.8467 179.662 11.8C180.581 12.7533 181.04 14.0707 181.04 15.752V24.878C181.04 25.1207 180.919 25.242 180.676 25.242H177.738C177.496 25.242 177.374 25.1207 177.374 24.878V17.234C177.374 16.0207 177.149 15.128 176.698 14.556C176.265 13.984 175.624 13.698 174.774 13.698C174.341 13.698 173.925 13.7847 173.526 13.958C173.128 14.114 172.772 14.3653 172.46 14.712C172.166 15.0413 171.923 15.466 171.732 15.986C171.559 16.506 171.472 17.1127 171.472 17.806V24.878C171.472 25.1207 171.351 25.242 171.108 25.242H168.17C167.928 25.242 167.806 25.1207 167.806 24.878V17.234C167.806 16.0207 167.581 15.128 167.13 14.556C166.697 13.984 166.056 13.698 165.206 13.698C164.773 13.698 164.357 13.7847 163.958 13.958C163.56 14.114 163.204 14.3653 162.892 14.712C162.58 15.0413 162.329 15.466 162.138 15.986C161.965 16.506 161.878 17.1127 161.878 17.806V24.878C161.878 25.1207 161.757 25.242 161.514 25.242H158.602Z" fill="#60424C"/>
<path d="M142.177 25.528C141.137 25.528 140.192 25.3373 139.343 24.956C138.511 24.592 137.8 24.0807 137.211 23.422C136.621 22.7633 136.162 21.966 135.833 21.03C135.521 20.094 135.365 19.0713 135.365 17.962C135.365 16.8353 135.521 15.8127 135.833 14.894C136.162 13.958 136.621 13.1607 137.211 12.502C137.8 11.826 138.511 11.306 139.343 10.942C140.192 10.5607 141.137 10.37 142.177 10.37C143.199 10.37 144.118 10.5693 144.933 10.968C145.747 11.3667 146.415 11.93 146.935 12.658L147.039 11.02C147.039 10.7773 147.169 10.656 147.429 10.656H150.055C150.315 10.656 150.445 10.7773 150.445 11.02V24.878C150.445 25.1207 150.315 25.242 150.055 25.242H147.429C147.169 25.242 147.039 25.1207 147.039 24.878L146.935 23.24C146.415 23.968 145.747 24.5313 144.933 24.93C144.118 25.3287 143.199 25.528 142.177 25.528ZM143.087 22.2C143.676 22.2 144.213 22.096 144.699 21.888C145.184 21.68 145.6 21.394 145.947 21.03C146.293 20.6487 146.562 20.198 146.753 19.678C146.943 19.158 147.039 18.586 147.039 17.962C147.039 17.338 146.943 16.766 146.753 16.246C146.562 15.7087 146.293 15.258 145.947 14.894C145.6 14.5127 145.184 14.218 144.699 14.01C144.213 13.802 143.676 13.698 143.087 13.698C142.497 13.698 141.96 13.802 141.475 14.01C140.989 14.218 140.573 14.5127 140.227 14.894C139.88 15.258 139.611 15.7087 139.421 16.246C139.23 16.766 139.135 17.338 139.135 17.962C139.135 18.586 139.23 19.158 139.421 19.678C139.611 20.198 139.88 20.6487 140.227 21.03C140.573 21.394 140.989 21.68 141.475 21.888C141.96 22.096 142.497 22.2 143.087 22.2Z" fill="#60424C"/>
<path d="M120.997 25.242C120.754 25.242 120.633 25.1207 120.633 24.878V4.494C120.633 4.25133 120.754 4.13 120.997 4.13H123.909C124.151 4.13 124.273 4.25133 124.273 4.494V16.35L129.577 10.864C129.698 10.7253 129.845 10.656 130.019 10.656H133.789C134.014 10.656 134.127 10.734 134.127 10.89C134.127 10.942 134.083 11.0113 133.997 11.098L129.135 15.882L134.569 24.8C134.603 24.852 134.621 24.9213 134.621 25.008C134.621 25.164 134.525 25.242 134.335 25.242H130.851C130.643 25.242 130.504 25.1553 130.435 24.982L126.483 18.508L124.273 20.64V24.878C124.273 25.1207 124.151 25.242 123.909 25.242H120.997Z" fill="#60424C"/>
<path d="M108.534 25.528C107.494 25.528 106.549 25.3373 105.7 24.956C104.868 24.592 104.157 24.0807 103.568 23.422C102.979 22.7633 102.519 21.966 102.19 21.03C101.878 20.094 101.722 19.0713 101.722 17.962C101.722 16.8353 101.878 15.8127 102.19 14.894C102.519 13.958 102.979 13.1607 103.568 12.502C104.157 11.826 104.868 11.306 105.7 10.942C106.549 10.5607 107.494 10.37 108.534 10.37C109.557 10.37 110.475 10.5693 111.29 10.968C112.105 11.3667 112.772 11.93 113.292 12.658L113.396 11.02C113.396 10.7773 113.526 10.656 113.786 10.656H116.412C116.672 10.656 116.802 10.7773 116.802 11.02V24.878C116.802 25.1207 116.672 25.242 116.412 25.242H113.786C113.526 25.242 113.396 25.1207 113.396 24.878L113.292 23.24C112.772 23.968 112.105 24.5313 111.29 24.93C110.475 25.3287 109.557 25.528 108.534 25.528ZM109.444 22.2C110.033 22.2 110.571 22.096 111.056 21.888C111.541 21.68 111.957 21.394 112.304 21.03C112.651 20.6487 112.919 20.198 113.11 19.678C113.301 19.158 113.396 18.586 113.396 17.962C113.396 17.338 113.301 16.766 113.11 16.246C112.919 15.7087 112.651 15.258 112.304 14.894C111.957 14.5127 111.541 14.218 111.056 14.01C110.571 13.802 110.033 13.698 109.444 13.698C108.855 13.698 108.317 13.802 107.832 14.01C107.347 14.218 106.931 14.5127 106.584 14.894C106.237 15.258 105.969 15.7087 105.778 16.246C105.587 16.766 105.492 17.338 105.492 17.962C105.492 18.586 105.587 19.158 105.778 19.678C105.969 20.198 106.237 20.6487 106.584 21.03C106.931 21.394 107.347 21.68 107.832 21.888C108.317 22.096 108.855 22.2 109.444 22.2Z" fill="#60424C"/>
<path d="M85.6531 25.242C85.4104 25.242 85.2891 25.1207 85.2891 24.878V11.02C85.2891 10.7773 85.4104 10.656 85.6531 10.656H88.3051C88.4091 10.656 88.4957 10.682 88.5651 10.734C88.6517 10.786 88.6951 10.8813 88.6951 11.02L88.7731 12.684C89.3104 11.904 90.0037 11.3233 90.8531 10.942C91.7024 10.5607 92.5951 10.37 93.5311 10.37C95.2297 10.37 96.5384 10.8467 97.4571 11.8C98.3931 12.7533 98.8611 14.0707 98.8611 15.752V24.878C98.8611 25.1207 98.7397 25.242 98.4971 25.242H95.5591C95.3164 25.242 95.1951 25.1207 95.1951 24.878V17.234C95.1951 16.0207 94.9697 15.128 94.5191 14.556C94.0684 13.984 93.3664 13.698 92.4131 13.698C91.9624 13.698 91.5291 13.7847 91.1131 13.958C90.6971 14.114 90.3244 14.3653 89.9951 14.712C89.6657 15.0413 89.4057 15.466 89.2151 15.986C89.0244 16.506 88.9291 17.1127 88.9291 17.806V24.878C88.9291 25.1207 88.8077 25.242 88.5651 25.242H85.6531Z" fill="#60424C"/>
<path d="M68.362 25.242C68.1194 25.242 67.998 25.1207 67.998 24.878V11.02C67.998 10.7773 68.1194 10.656 68.362 10.656H71.014C71.118 10.656 71.2047 10.682 71.274 10.734C71.3607 10.786 71.404 10.8813 71.404 11.02L71.482 12.684C72.0194 11.904 72.7127 11.3233 73.562 10.942C74.4114 10.5607 75.304 10.37 76.24 10.37C77.9387 10.37 79.2474 10.8467 80.166 11.8C81.102 12.7533 81.57 14.0707 81.57 15.752V24.878C81.57 25.1207 81.4487 25.242 81.206 25.242H78.268C78.0254 25.242 77.904 25.1207 77.904 24.878V17.234C77.904 16.0207 77.6787 15.128 77.228 14.556C76.7774 13.984 76.0754 13.698 75.122 13.698C74.6714 13.698 74.238 13.7847 73.822 13.958C73.406 14.114 73.0334 14.3653 72.704 14.712C72.3747 15.0413 72.1147 15.466 71.924 15.986C71.7334 16.506 71.638 17.1127 71.638 17.806V24.878C71.638 25.1207 71.5167 25.242 71.274 25.242H68.362Z" fill="#60424C"/>
<path d="M60.8718 25.242C60.6291 25.242 60.5078 25.1207 60.5078 24.878V11.02C60.5078 10.7773 60.6291 10.656 60.8718 10.656H63.7838C64.0265 10.656 64.1478 10.7773 64.1478 11.02V24.878C64.1478 25.1207 64.0265 25.242 63.7838 25.242H60.8718ZM62.3278 8.056C61.7211 8.056 61.2098 7.874 60.7938 7.51C60.3951 7.12867 60.1958 6.63467 60.1958 6.028C60.1958 5.42133 60.3951 4.936 60.7938 4.572C61.2098 4.19067 61.7211 4 62.3278 4C62.9345 4 63.4371 4.19067 63.8358 4.572C64.2518 4.936 64.4598 5.42133 64.4598 6.028C64.4598 6.63467 64.2518 7.12867 63.8358 7.51C63.4371 7.874 62.9345 8.056 62.3278 8.056Z" fill="#60424C"/>
<path d="M34.364 25.242C34.1213 25.242 34 25.1207 34 24.878V11.02C34 10.7773 34.1213 10.656 34.364 10.656H37.016C37.12 10.656 37.2067 10.682 37.276 10.734C37.3627 10.786 37.406 10.8813 37.406 11.02L37.484 12.762C38.004 11.982 38.6713 11.3927 39.486 10.994C40.318 10.578 41.1933 10.37 42.112 10.37C43.204 10.37 44.14 10.604 44.92 11.072C45.7 11.5227 46.2893 12.1813 46.688 13.048C47.2253 12.164 47.936 11.4967 48.82 11.046C49.7213 10.5953 50.6747 10.37 51.68 10.37C53.2747 10.37 54.5227 10.8467 55.424 11.8C56.3427 12.7533 56.802 14.0707 56.802 15.752V24.878C56.802 25.1207 56.6807 25.242 56.438 25.242H53.5C53.2573 25.242 53.136 25.1207 53.136 24.878V17.234C53.136 16.0207 52.9107 15.128 52.46 14.556C52.0267 13.984 51.3853 13.698 50.536 13.698C50.1027 13.698 49.6867 13.7847 49.288 13.958C48.8893 14.114 48.534 14.3653 48.222 14.712C47.9273 15.0413 47.6847 15.466 47.494 15.986C47.3207 16.506 47.234 17.1127 47.234 17.806V24.878C47.234 25.1207 47.1127 25.242 46.87 25.242H43.932C43.6893 25.242 43.568 25.1207 43.568 24.878V17.234C43.568 16.0207 43.3427 15.128 42.892 14.556C42.4587 13.984 41.8173 13.698 40.968 13.698C40.5347 13.698 40.1187 13.7847 39.72 13.958C39.3213 14.114 38.966 14.3653 38.654 14.712C38.342 15.0413 38.0907 15.466 37.9 15.986C37.7267 16.506 37.64 17.1127 37.64 17.806V24.878C37.64 25.1207 37.5187 25.242 37.276 25.242H34.364Z" fill="#60424C"/>
</svg>
