<svg width="227" height="53" viewBox="0 0 227 53" fill="none" xmlns="http://www.w3.org/2000/svg">
<path d="M10.8 12.5H3.2C2.0799 12.5 1.51984 12.5 1.09202 12.718C0.715695 12.9098 0.409734 13.2157 0.217987 13.592C0 14.0199 0 14.5799 0 15.7V23.3C0 24.4201 0 24.9801 0.217987 25.408C0.409734 25.7843 0.715695 26.0902 1.09202 26.282C1.51984 26.5 2.07989 26.5 3.2 26.5H10.8C11.9201 26.5 12.4801 26.5 12.9079 26.282C13.2843 26.0902 13.5902 25.7843 13.782 25.408C14 24.9801 14 24.4201 14 23.3V15.7C14 14.5799 14 14.0199 13.782 13.592C13.5902 13.2157 13.2843 12.9098 12.9079 12.718C12.4801 12.5 11.9201 12.5 10.8 12.5Z" fill="#FF8F56"/>
<path d="M24.8 26.5H17.2C16.0799 26.5 15.5198 26.5 15.092 26.718C14.7157 26.9098 14.4097 27.2157 14.218 27.592C14 28.0199 14 28.5799 14 29.7V37.3C14 38.4201 14 38.9801 14.218 39.408C14.4097 39.7843 14.7157 40.0902 15.092 40.282C15.5198 40.5 16.0799 40.5 17.2 40.5H24.8C25.9201 40.5 26.4801 40.5 26.9079 40.282C27.2843 40.0902 27.5902 39.7843 27.782 39.408C28 38.9801 28 38.4201 28 37.3V29.7C28 28.5799 28 28.0199 27.782 27.592C27.5902 27.2157 27.2843 26.9098 26.9079 26.718C26.4801 26.5 25.9201 26.5 24.8 26.5Z" fill="#FF8F56"/>
<path d="M7.93497 29.365H3.2C2.07989 29.365 1.51984 29.365 1.09202 29.583C0.715695 29.7747 0.409734 30.0807 0.217987 30.457C0 30.8848 0 31.4449 0 32.565V37.3C0 38.4201 0 38.9801 0.217987 39.4079C0.409734 39.7843 0.715695 40.0902 1.09202 40.282C1.51984 40.5 2.07989 40.5 3.2 40.5H7.93497C9.05507 40.5 9.61513 40.5 10.0429 40.282C10.4193 40.0902 10.7252 39.7843 10.917 39.4079C11.135 38.9801 11.135 38.4201 11.135 37.3V32.565C11.135 31.4449 11.135 30.8848 10.917 30.457C10.7252 30.0807 10.4193 29.7747 10.0429 29.583C9.61513 29.365 9.05507 29.365 7.93497 29.365Z" fill="#984A59"/>
<path d="M24.8002 12.5H20.0652C18.9451 12.5 18.3851 12.5 17.9573 12.718C17.5809 12.9098 17.275 13.2157 17.0832 13.592C16.8652 14.0199 16.8652 14.5799 16.8652 15.7V20.435C16.8652 21.5551 16.8652 22.1151 17.0832 22.543C17.275 22.9193 17.5809 23.2253 17.9573 23.417C18.3851 23.635 18.9451 23.635 20.0652 23.635H24.8002C25.9203 23.635 26.4804 23.635 26.9082 23.417C27.2845 23.2253 27.5905 22.9193 27.7822 22.543C28.0002 22.1151 28.0002 21.5551 28.0002 20.435V15.7C28.0002 14.5799 28.0002 14.0199 27.7822 13.592C27.5905 13.2157 27.2845 12.9098 26.9082 12.718C26.4804 12.5 25.9203 12.5 24.8002 12.5Z" fill="#FF5959"/>
<path d="M212.163 40.189C211.92 40.189 211.799 40.0677 211.799 39.825V19.831C211.799 19.5883 211.92 19.467 212.163 19.467H214.815C214.919 19.467 215.005 19.493 215.075 19.545C215.161 19.597 215.205 19.6923 215.205 19.831L215.283 21.469C215.803 20.741 216.47 20.1777 217.285 19.779C218.1 19.3803 219.018 19.181 220.041 19.181C221.081 19.181 222.017 19.3717 222.849 19.753C223.698 20.117 224.418 20.637 225.007 21.313C225.596 21.9717 226.047 22.769 226.359 23.705C226.688 24.6237 226.853 25.6463 226.853 26.773C226.853 27.8823 226.688 28.905 226.359 29.841C226.047 30.777 225.596 31.5743 225.007 32.233C224.418 32.8917 223.698 33.403 222.849 33.767C222.017 34.1483 221.081 34.339 220.041 34.339C219.07 34.339 218.195 34.157 217.415 33.793C216.652 33.4463 215.993 32.9437 215.439 32.285V39.825C215.439 40.0677 215.317 40.189 215.075 40.189H212.163ZM219.131 31.011C219.72 31.011 220.257 30.907 220.743 30.699C221.228 30.491 221.644 30.205 221.991 29.841C222.337 29.4597 222.606 29.009 222.797 28.489C222.987 27.969 223.083 27.397 223.083 26.773C223.083 26.149 222.987 25.577 222.797 25.057C222.606 24.5197 222.337 24.069 221.991 23.705C221.644 23.3237 221.228 23.029 220.743 22.821C220.257 22.613 219.72 22.509 219.131 22.509C218.541 22.509 218.004 22.613 217.519 22.821C217.051 23.029 216.643 23.3237 216.297 23.705C215.95 24.069 215.681 24.5197 215.491 25.057C215.3 25.577 215.205 26.149 215.205 26.773C215.205 27.397 215.3 27.969 215.491 28.489C215.681 29.009 215.95 29.4597 216.297 29.841C216.643 30.205 217.051 30.491 217.519 30.699C218.004 30.907 218.541 31.011 219.131 31.011Z" fill="#581206"/>
<path d="M199.701 34.339C198.661 34.339 197.716 34.1483 196.867 33.767C196.035 33.403 195.324 32.8917 194.735 32.233C194.145 31.5743 193.686 30.777 193.357 29.841C193.045 28.905 192.889 27.8823 192.889 26.773C192.889 25.6463 193.045 24.6237 193.357 23.705C193.686 22.769 194.145 21.9717 194.735 21.313C195.324 20.637 196.035 20.117 196.867 19.753C197.716 19.3717 198.661 19.181 199.701 19.181C200.723 19.181 201.642 19.3803 202.457 19.779C203.271 20.1777 203.939 20.741 204.459 21.469L204.563 19.831C204.563 19.5883 204.693 19.467 204.953 19.467H207.579C207.839 19.467 207.969 19.5883 207.969 19.831V33.689C207.969 33.9317 207.839 34.053 207.579 34.053H204.953C204.693 34.053 204.563 33.9317 204.563 33.689L204.459 32.051C203.939 32.779 203.271 33.3423 202.457 33.741C201.642 34.1397 200.723 34.339 199.701 34.339ZM200.611 31.011C201.2 31.011 201.737 30.907 202.223 30.699C202.708 30.491 203.124 30.205 203.471 29.841C203.817 29.4597 204.086 29.009 204.277 28.489C204.467 27.969 204.563 27.397 204.563 26.773C204.563 26.149 204.467 25.577 204.277 25.057C204.086 24.5197 203.817 24.069 203.471 23.705C203.124 23.3237 202.708 23.029 202.223 22.821C201.737 22.613 201.2 22.509 200.611 22.509C200.021 22.509 199.484 22.613 198.999 22.821C198.513 23.029 198.097 23.3237 197.751 23.705C197.404 24.069 197.135 24.5197 196.945 25.057C196.754 25.577 196.659 26.149 196.659 26.773C196.659 27.397 196.754 27.969 196.945 28.489C197.135 29.009 197.404 29.4597 197.751 29.841C198.097 30.205 198.513 30.491 198.999 30.699C199.484 30.907 200.021 31.011 200.611 31.011Z" fill="#581206"/>
<path d="M167.602 34.053C167.36 34.053 167.238 33.9317 167.238 33.689V19.831C167.238 19.5883 167.36 19.467 167.602 19.467H170.254C170.358 19.467 170.445 19.493 170.514 19.545C170.601 19.597 170.644 19.6923 170.644 19.831L170.722 21.573C171.242 20.793 171.91 20.2037 172.724 19.805C173.556 19.389 174.432 19.181 175.35 19.181C176.442 19.181 177.378 19.415 178.158 19.883C178.938 20.3337 179.528 20.9923 179.926 21.859C180.464 20.975 181.174 20.3077 182.058 19.857C182.96 19.4063 183.913 19.181 184.918 19.181C186.513 19.181 187.761 19.6577 188.662 20.611C189.581 21.5643 190.04 22.8817 190.04 24.563V33.689C190.04 33.9317 189.919 34.053 189.676 34.053H186.738C186.496 34.053 186.374 33.9317 186.374 33.689V26.045C186.374 24.8317 186.149 23.939 185.698 23.367C185.265 22.795 184.624 22.509 183.774 22.509C183.341 22.509 182.925 22.5957 182.526 22.769C182.128 22.925 181.772 23.1763 181.46 23.523C181.166 23.8523 180.923 24.277 180.732 24.797C180.559 25.317 180.472 25.9237 180.472 26.617V33.689C180.472 33.9317 180.351 34.053 180.108 34.053H177.17C176.928 34.053 176.806 33.9317 176.806 33.689V26.045C176.806 24.8317 176.581 23.939 176.13 23.367C175.697 22.795 175.056 22.509 174.206 22.509C173.773 22.509 173.357 22.5957 172.958 22.769C172.56 22.925 172.204 23.1763 171.892 23.523C171.58 23.8523 171.329 24.277 171.138 24.797C170.965 25.317 170.878 25.9237 170.878 26.617V33.689C170.878 33.9317 170.757 34.053 170.514 34.053H167.602Z" fill="#581206"/>
<path d="M146.177 34.339C145.137 34.339 144.193 34.1483 143.343 33.767C142.511 33.403 141.801 32.8917 141.211 32.233C140.622 31.5743 140.163 30.777 139.833 29.841C139.521 28.905 139.365 27.8823 139.365 26.773C139.365 25.6463 139.521 24.6237 139.833 23.705C140.163 22.769 140.622 21.9717 141.211 21.313C141.801 20.637 142.511 20.117 143.343 19.753C144.193 19.3717 145.137 19.181 146.177 19.181C147.2 19.181 148.119 19.3803 148.933 19.779C149.748 20.1777 150.415 20.741 150.935 21.469L151.039 19.831C151.039 19.5883 151.169 19.467 151.429 19.467H154.055C154.315 19.467 154.445 19.5883 154.445 19.831V33.689C154.445 33.9317 154.315 34.053 154.055 34.053H151.429C151.169 34.053 151.039 33.9317 151.039 33.689L150.935 32.051C150.415 32.779 149.748 33.3423 148.933 33.741C148.119 34.1397 147.2 34.339 146.177 34.339ZM147.087 31.011C147.677 31.011 148.214 30.907 148.699 30.699C149.185 30.491 149.601 30.205 149.947 29.841C150.294 29.4597 150.563 29.009 150.753 28.489C150.944 27.969 151.039 27.397 151.039 26.773C151.039 26.149 150.944 25.577 150.753 25.057C150.563 24.5197 150.294 24.069 149.947 23.705C149.601 23.3237 149.185 23.029 148.699 22.821C148.214 22.613 147.677 22.509 147.087 22.509C146.498 22.509 145.961 22.613 145.475 22.821C144.99 23.029 144.574 23.3237 144.227 23.705C143.881 24.069 143.612 24.5197 143.421 25.057C143.231 25.577 143.135 26.149 143.135 26.773C143.135 27.397 143.231 27.969 143.421 28.489C143.612 29.009 143.881 29.4597 144.227 29.841C144.574 30.205 144.99 30.491 145.475 30.699C145.961 30.907 146.498 31.011 147.087 31.011Z" fill="#581206"/>
<path d="M124.997 34.053C124.754 34.053 124.633 33.9317 124.633 33.689V13.305C124.633 13.0623 124.754 12.941 124.997 12.941H127.909C128.151 12.941 128.273 13.0623 128.273 13.305V25.161L133.577 19.675C133.698 19.5363 133.845 19.467 134.019 19.467H137.789C138.014 19.467 138.127 19.545 138.127 19.701C138.127 19.753 138.083 19.8223 137.997 19.909L133.135 24.693L138.569 33.611C138.603 33.663 138.621 33.7323 138.621 33.819C138.621 33.975 138.525 34.053 138.335 34.053H134.851C134.643 34.053 134.504 33.9663 134.435 33.793L130.483 27.319L128.273 29.451V33.689C128.273 33.9317 128.151 34.053 127.909 34.053H124.997Z" fill="#581206"/>
<path d="M112.535 34.339C111.495 34.339 110.55 34.1483 109.701 33.767C108.869 33.403 108.158 32.8917 107.569 32.233C106.979 31.5743 106.52 30.777 106.191 29.841C105.879 28.905 105.723 27.8823 105.723 26.773C105.723 25.6463 105.879 24.6237 106.191 23.705C106.52 22.769 106.979 21.9717 107.569 21.313C108.158 20.637 108.869 20.117 109.701 19.753C110.55 19.3717 111.495 19.181 112.535 19.181C113.557 19.181 114.476 19.3803 115.291 19.779C116.105 20.1777 116.773 20.741 117.293 21.469L117.397 19.831C117.397 19.5883 117.527 19.467 117.787 19.467H120.413C120.673 19.467 120.803 19.5883 120.803 19.831V33.689C120.803 33.9317 120.673 34.053 120.413 34.053H117.787C117.527 34.053 117.397 33.9317 117.397 33.689L117.293 32.051C116.773 32.779 116.105 33.3423 115.291 33.741C114.476 34.1397 113.557 34.339 112.535 34.339ZM113.445 31.011C114.034 31.011 114.571 30.907 115.057 30.699C115.542 30.491 115.958 30.205 116.305 29.841C116.651 29.4597 116.92 29.009 117.111 28.489C117.301 27.969 117.397 27.397 117.397 26.773C117.397 26.149 117.301 25.577 117.111 25.057C116.92 24.5197 116.651 24.069 116.305 23.705C115.958 23.3237 115.542 23.029 115.057 22.821C114.571 22.613 114.034 22.509 113.445 22.509C112.855 22.509 112.318 22.613 111.833 22.821C111.347 23.029 110.931 23.3237 110.585 23.705C110.238 24.069 109.969 24.5197 109.779 25.057C109.588 25.577 109.493 26.149 109.493 26.773C109.493 27.397 109.588 27.969 109.779 28.489C109.969 29.009 110.238 29.4597 110.585 29.841C110.931 30.205 111.347 30.491 111.833 30.699C112.318 30.907 112.855 31.011 113.445 31.011Z" fill="#581206"/>
<path d="M89.6531 34.053C89.4104 34.053 89.2891 33.9317 89.2891 33.689V19.831C89.2891 19.5883 89.4104 19.467 89.6531 19.467H92.3051C92.4091 19.467 92.4957 19.493 92.5651 19.545C92.6517 19.597 92.6951 19.6923 92.6951 19.831L92.7731 21.495C93.3104 20.715 94.0037 20.1343 94.8531 19.753C95.7024 19.3717 96.5951 19.181 97.5311 19.181C99.2297 19.181 100.538 19.6577 101.457 20.611C102.393 21.5643 102.861 22.8817 102.861 24.563V33.689C102.861 33.9317 102.74 34.053 102.497 34.053H99.5591C99.3164 34.053 99.1951 33.9317 99.1951 33.689V26.045C99.1951 24.8317 98.9697 23.939 98.5191 23.367C98.0684 22.795 97.3664 22.509 96.4131 22.509C95.9624 22.509 95.5291 22.5957 95.1131 22.769C94.6971 22.925 94.3244 23.1763 93.9951 23.523C93.6657 23.8523 93.4057 24.277 93.2151 24.797C93.0244 25.317 92.9291 25.9237 92.9291 26.617V33.689C92.9291 33.9317 92.8077 34.053 92.5651 34.053H89.6531Z" fill="#581206"/>
<path d="M72.362 34.053C72.1194 34.053 71.998 33.9317 71.998 33.689V19.831C71.998 19.5883 72.1194 19.467 72.362 19.467H75.014C75.118 19.467 75.2047 19.493 75.274 19.545C75.3607 19.597 75.404 19.6923 75.404 19.831L75.482 21.495C76.0194 20.715 76.7127 20.1343 77.562 19.753C78.4114 19.3717 79.304 19.181 80.24 19.181C81.9387 19.181 83.2474 19.6577 84.166 20.611C85.102 21.5643 85.57 22.8817 85.57 24.563V33.689C85.57 33.9317 85.4487 34.053 85.206 34.053H82.268C82.0254 34.053 81.904 33.9317 81.904 33.689V26.045C81.904 24.8317 81.6787 23.939 81.228 23.367C80.7774 22.795 80.0754 22.509 79.122 22.509C78.6714 22.509 78.238 22.5957 77.822 22.769C77.406 22.925 77.0334 23.1763 76.704 23.523C76.3747 23.8523 76.1147 24.277 75.924 24.797C75.7334 25.317 75.638 25.9237 75.638 26.617V33.689C75.638 33.9317 75.5167 34.053 75.274 34.053H72.362Z" fill="#581206"/>
<path d="M64.8713 34.053C64.6286 34.053 64.5073 33.9317 64.5073 33.689V19.831C64.5073 19.5883 64.6286 19.467 64.8713 19.467H67.7833C68.026 19.467 68.1473 19.5883 68.1473 19.831V33.689C68.1473 33.9317 68.026 34.053 67.7833 34.053H64.8713ZM66.3273 16.867C65.7206 16.867 65.2093 16.685 64.7933 16.321C64.3946 15.9397 64.1953 15.4457 64.1953 14.839C64.1953 14.2323 64.3946 13.747 64.7933 13.383C65.2093 13.0017 65.7206 12.811 66.3273 12.811C66.934 12.811 67.4366 13.0017 67.8353 13.383C68.2513 13.747 68.4593 14.2323 68.4593 14.839C68.4593 15.4457 68.2513 15.9397 67.8353 16.321C67.4366 16.685 66.934 16.867 66.3273 16.867Z" fill="#581206"/>
<path d="M38.364 34.053C38.1213 34.053 38 33.9317 38 33.689V19.831C38 19.5883 38.1213 19.467 38.364 19.467H41.016C41.12 19.467 41.2067 19.493 41.276 19.545C41.3627 19.597 41.406 19.6923 41.406 19.831L41.484 21.573C42.004 20.793 42.6713 20.2037 43.486 19.805C44.318 19.389 45.1933 19.181 46.112 19.181C47.204 19.181 48.14 19.415 48.92 19.883C49.7 20.3337 50.2893 20.9923 50.688 21.859C51.2253 20.975 51.936 20.3077 52.82 19.857C53.7213 19.4063 54.6747 19.181 55.68 19.181C57.2747 19.181 58.5227 19.6577 59.424 20.611C60.3427 21.5643 60.802 22.8817 60.802 24.563V33.689C60.802 33.9317 60.6807 34.053 60.438 34.053H57.5C57.2573 34.053 57.136 33.9317 57.136 33.689V26.045C57.136 24.8317 56.9107 23.939 56.46 23.367C56.0267 22.795 55.3853 22.509 54.536 22.509C54.1027 22.509 53.6867 22.5957 53.288 22.769C52.8893 22.925 52.534 23.1763 52.222 23.523C51.9273 23.8523 51.6847 24.277 51.494 24.797C51.3207 25.317 51.234 25.9237 51.234 26.617V33.689C51.234 33.9317 51.1127 34.053 50.87 34.053H47.932C47.6893 34.053 47.568 33.9317 47.568 33.689V26.045C47.568 24.8317 47.3427 23.939 46.892 23.367C46.4587 22.795 45.8173 22.509 44.968 22.509C44.5347 22.509 44.1187 22.5957 43.72 22.769C43.3213 22.925 42.966 23.1763 42.654 23.523C42.342 23.8523 42.0907 24.277 41.9 24.797C41.7267 25.317 41.64 25.9237 41.64 26.617V33.689C41.64 33.9317 41.5187 34.053 41.276 34.053H38.364Z" fill="#581206"/>
</svg>
